<?xml version="1.0" encoding="UTF-8" standalone="no"?>
<!-- Created with Inkscape (http://www.inkscape.org/) -->

<svg
   xmlns:dc="http://purl.org/dc/elements/1.1/"
   xmlns:cc="http://creativecommons.org/ns#"
   xmlns:rdf="http://www.w3.org/1999/02/22-rdf-syntax-ns#"
   xmlns:svg="http://www.w3.org/2000/svg"
   xmlns="http://www.w3.org/2000/svg"
   xmlns:sodipodi="http://sodipodi.sourceforge.net/DTD/sodipodi-0.dtd"
   xmlns:inkscape="http://www.inkscape.org/namespaces/inkscape"
   width="300pt"
   height="200pt"
   viewBox="0 0 375.00001 250.00001"
   id="svg5220"
   version="1.1"
   inkscape:version="0.91 r13725"
   inkscape:export-filename="/Users/mac/Pictures/projets/xcoursier/splashs.png"
   inkscape:export-xdpi="300"
   inkscape:export-ydpi="300"
   sodipodi:docname="splash.svg">
  <defs
     id="defs5222" />
  <sodipodi:namedview
     id="base"
     pagecolor="#ffffff"
     bordercolor="#666666"
     borderopacity="1.0"
     inkscape:pageopacity="0.0"
     inkscape:pageshadow="2"
     inkscape:zoom="0.3"
     inkscape:cx="28.333333"
     inkscape:cy="251.63532"
     inkscape:document-units="px"
     inkscape:current-layer="g4155"
     showgrid="false"
     units="pt"
     inkscape:window-width="1280"
     inkscape:window-height="719"
     inkscape:window-x="0"
     inkscape:window-y="1"
     inkscape:window-maximized="1" />
  <metadata
     id="metadata5225">
    <rdf:RDF>
      <cc:Work
         rdf:about="">
        <dc:format>image/svg+xml</dc:format>
        <dc:type
           rdf:resource="http://purl.org/dc/dcmitype/StillImage" />
        <dc:title></dc:title>
        <dc:creator>
          <cc:Agent>
            <dc:title>Antoine-Elie ELKWAET</dc:title>
          </cc:Agent>
        </dc:creator>
        <dc:publisher>
          <cc:Agent>
            <dc:title>Antoine-Elie ELKWAET, LibrawebTogo</dc:title>
          </cc:Agent>
        </dc:publisher>
        <dc:language>fr</dc:language>
        <dc:subject>
          <rdf:Bag>
            <rdf:li>Elkwaet</rdf:li>
            <rdf:li>LibrawebTogo</rdf:li>
            <rdf:li>Libraweb</rdf:li>
          </rdf:Bag>
        </dc:subject>
        <dc:description>twitter.com/elkwaet http://elkwaet.deviantart.com www.elkwaet.tk </dc:description>
      </cc:Work>
    </rdf:RDF>
  </metadata>
  <g
     inkscape:label="Calque 1"
     inkscape:groupmode="layer"
     id="layer1"
     transform="translate(0,-802.3622)">
    <rect
       style="fill:#ffffff;fill-opacity:1;stroke:none;stroke-width:66;stroke-miterlimit:4;stroke-dasharray:none;stroke-opacity:1"
       id="rect4224"
       width="5005.7144"
       height="5005.7144"
       x="-6445.7144"
       y="-4387.6377" />
    <g
       id="g4155"
       transform="matrix(0.45522488,0,0,0.45522488,-950.56215,1476.2453)">
      <g
         style="font-style:normal;font-weight:normal;font-size:3981.07543945px;line-height:125%;font-family:sans-serif;letter-spacing:0px;word-spacing:0px;fill:#ffffff;fill-opacity:1;stroke:none;stroke-width:1px;stroke-linecap:butt;stroke-linejoin:miter;stroke-opacity:1"
         id="g4475"
         transform="matrix(0.02370615,0,0,0.02323237,1511.7543,-1311.23)">
        <path
           d="m 50331.641,-4949.7559 -6931.648,7403.6481 4247.994,7700.3338 -2845.482,0 -3196.11,-5987.6502 -5556.108,5987.6502 -3007.31,0 7430.619,-7956.5621 -3951.309,-7147.4198 2845.482,0 2899.425,5461.7076 5057.137,-5461.7076 3007.31,0 z"
           style="font-style:italic;font-size:27618.70898438px;fill:#006e71;fill-opacity:1"
           id="path4477"
           inkscape:connector-curvature="0" />
      </g>
      <path
         style="fill:#006e71;fill-opacity:1;stroke:#ffffff;stroke-width:16.72855568;stroke-miterlimit:4;stroke-dasharray:none;stroke-opacity:1"
         d="m 2324.3015,-1080.1337 c -10.6085,-1.4548 -24.0792,-6.302 -33.5592,-12.0757 -49.9692,-30.4328 -56.926,-101.6616 -13.8209,-141.512 27.057,-25.0142 65.6623,-30.2747 98.5711,-13.4313 4.2382,2.1689 7.6945,4.2589 7.6808,4.6443 -0.046,1.2798 -44.427,23.8103 -45.5553,23.1269 -0.6096,-0.3692 -4.6023,-0.141 -8.8727,0.5071 -29.6605,4.5017 -49.6172,34.4197 -42.0219,62.9969 4.8147,18.1157 17.3586,31.3803 34.6148,36.6036 14.2508,4.3138 29.1732,2.0379 42.1998,-6.4357 9.9746,-6.4885 19.6151,-21.0479 21.4539,-32.4005 l 0.7591,-4.6864 -7.2698,1.6637 c -50.0219,11.4486 -51.4355,11.625 -57.2519,7.1412 -4.1803,-3.2226 -6.8684,-10.6434 -5.9736,-16.491 1.4195,-9.2767 4.2043,-11.0488 60.5221,-38.5151 28.2548,-13.78 52.9134,-25.5731 54.797,-26.2073 l 3.4249,-1.1531 -6.8496,-3.4441 c -28.7,-14.4308 -75.3068,-52.2785 -128.4937,-104.3444 -30.5543,-29.9106 -36.5841,-37.3534 -33.0278,-40.7675 1.4869,-1.4275 5.5148,-1.1578 32.5204,2.1763 40.4938,4.9999 59.8833,8.0266 68.712,10.7255 4.8944,1.4961 6.8055,6.7335 8.8741,24.321 1.1385,9.6796 2.2064,14.4551 3.5598,15.9207 5.5656,6.0269 55.652,18.9195 73.5005,18.9195 4.67,0 5.9184,-0.5392 9.5995,-4.1465 5.2439,-5.1393 10.7745,-13.2389 17.5005,-25.6297 14.3589,-26.4526 31.8141,-30.0263 95.0922,-19.4688 19.0565,3.1793 29.5335,5.5326 33.6774,7.564 1.8836,0.9237 8.4672,5.1881 14.6299,9.4764 12.8191,8.9202 14.131,9.0532 21.1786,2.1466 10.8517,-10.6352 8.0533,-26.7862 -8.9304,-51.5398 -8.3763,-12.2085 -11.407,-18.3455 -11.4415,-23.1688 -0.031,-4.4097 2.1018,-5.3017 7.9541,-3.3259 12.1801,4.1125 43.5539,31.7348 60.5072,53.2721 25.4101,32.2803 47.953,73.2649 46.6074,84.7349 l -0.3626,3.0898 -18.2656,0.5832 c -22.8917,0.731 -24.5332,1.425 -41.8589,17.6954 -23.8386,22.3866 -43.1519,50.6111 -59.7364,87.2994 -7.1262,15.7645 -15.1569,39.6986 -16.8039,50.0813 l -1.3564,8.5497 -32.592,-0.64 c -33.1056,-0.6498 -54.5267,-2.4037 -78.5924,-6.4352 -14.4409,-2.4191 -35.7133,-7.4089 -36.9743,-8.6727 -0.4284,-0.4297 0.9843,-7.8046 3.1395,-16.389 4.102,-16.3395 4.7415,-23.8508 2.4401,-28.6636 l -1.3758,-2.8764 -16.6882,3.8771 -16.6882,3.8773 -0.7674,9.0191 c -2.9135,34.237 -22.4994,62.3833 -52.7695,75.8341 -13.2452,5.8856 -31.4766,8.5127 -45.6168,6.5734 z m 361.4218,0.077 c -12.8098,-1.7683 -26.473,-6.9401 -37.881,-14.3389 -4.1421,-2.6863 -4.3585,-3.1222 -4.3585,-8.7746 0,-6.4202 3.4642,-25.5127 6.368,-35.0946 l 1.7944,-5.9219 2.925,4.3319 c 12.5418,18.5724 35.3353,27.0376 55.8801,20.7524 13.6113,-4.164 24.0444,-13.1915 30.8564,-26.6993 3.8099,-7.5543 4.3051,-9.5491 4.7288,-19.042 0.5824,-13.0506 -1.6785,-22.2364 -7.7322,-31.4153 -8.3069,-12.5957 -20.3034,-20.3146 -35.3595,-22.7513 l -8.1809,-1.3242 3.1855,-3.2934 c 5.5823,-5.7712 20.457,-17.5185 23.7242,-18.736 1.7346,-0.6461 6.8254,-1.479 11.3127,-1.8508 l 8.1591,-0.6759 8.6211,6.7139 c 14.5312,11.3168 25.7981,28.4008 30.8504,46.7791 3.7526,13.6493 3.5051,34.5848 -0.5651,47.8277 -8.1454,26.5018 -25.1673,46.1004 -49.387,56.8628 -13.0015,5.7773 -31.4703,8.5103 -44.9415,6.6504 z m -466.0576,-157.6581 c -1.7256,-1.0207 -3.1166,-2.3589 -3.0914,-2.9743 0.025,-0.6155 7.604,-14.3772 16.842,-30.5819 l 16.7961,-29.4629 11.9814,-4.8973 c 6.5898,-2.6932 12.4979,-4.916 13.1292,-4.9395 1.2469,-0.046 21.1155,16.6615 21.1103,17.752 0,0.3658 -6.2232,2.8934 -13.8261,5.6167 l -13.8233,4.9517 -22.3853,23.2979 c -12.3118,12.8138 -22.6575,23.2518 -22.9904,23.1955 -0.3329,-0.056 -2.017,-0.9373 -3.7425,-1.9579 z"
         id="path4479"
         inkscape:connector-curvature="0" />
      <g
         transform="matrix(0.22547984,0,0,0.22547984,1939.1334,-936.47955)"
         id="g4205">
        <g
           id="g4191">
          <g
             style="font-style:normal;font-weight:normal;font-size:2207.36279297px;line-height:125%;font-family:sans-serif;letter-spacing:0px;word-spacing:0px;fill:#006e71;fill-opacity:1;stroke:none;stroke-width:342.37149048;stroke-linecap:butt;stroke-linejoin:miter;stroke-miterlimit:4;stroke-dasharray:none;stroke-opacity:1"
             id="g4481"
             transform="matrix(0.15041364,0,0,0.1474076,-4380.9647,-2706.9427)">
            <g
               id="g4483"
               transform="translate(-976.73545,-873.92119)"
               style="fill:#006e71;fill-opacity:1">
              <path
                 inkscape:connector-curvature="0"
                 id="path4485"
                 style="font-style:normal;font-variant:normal;font-weight:normal;font-stretch:normal;font-size:3920.27636719px;font-family:'Steppes TT';-inkscape-font-specification:'Steppes TT';fill:#006e71;fill-opacity:1;stroke:#ffffff;stroke-width:147.46568298;stroke-miterlimit:4;stroke-dasharray:none;stroke-opacity:0"
                 d="m 37140.924,16981.617 -588.138,-1035.945 1968.711,0 -540.673,897.682 617.028,1097.856 -2045.066,0 588.138,-959.593 z" />
              <g
                 style="font-style:normal;font-weight:normal;font-size:1691.10949707px;line-height:125%;font-family:sans-serif;letter-spacing:0px;word-spacing:0px;fill:#006e71;fill-opacity:1;stroke:none;stroke-width:1px;stroke-linecap:butt;stroke-linejoin:miter;stroke-opacity:1"
                 transform="matrix(0.24500696,0,0,0.24500696,32436.854,12214.708)"
                 id="g4487">
                <path
                   inkscape:connector-curvature="0"
                   id="path4489"
                   style="font-style:normal;font-variant:normal;font-weight:normal;font-stretch:normal;font-size:11732.07128906px;font-family:'NFS font';-inkscape-font-specification:'NFS font';letter-spacing:-100px;fill:#006e71;fill-opacity:1;stroke:#ffffff;stroke-width:663.20568848;stroke-miterlimit:4;stroke-dasharray:none;stroke-opacity:1"
                   d="m 23986.382,18268.745 6484.719,0 0,22.914 q -103.114,103.114 -2749.704,1672.737 -320.799,229.142 -412.456,229.142 l -3230.902,0 q -1283.196,0 -2062.278,1649.822 -847.826,1300.381 -847.826,1603.995 l 0,91.656 q 0,389.542 527.027,389.542 l 4537.012,0 45.828,45.828 q -137.485,183.314 -1054.053,1856.051 l -2910.104,22.914 -2428.905,0 q -1535.252,0 -1535.252,-939.483 l 0,-68.742 q 0,-641.598 710.341,-1718.565 1661.279,-2904.375 2039.364,-3437.131 710.34,-910.839 2199.763,-1329.023 400.998,-91.657 687.426,-91.657 z" />
                <path
                   inkscape:connector-curvature="0"
                   id="path4491"
                   style="font-style:normal;font-variant:normal;font-weight:normal;font-stretch:normal;font-size:11732.07128906px;font-family:'NFS font';-inkscape-font-specification:'NFS font';letter-spacing:-100px;fill:#006e71;fill-opacity:1"
                   d="m 32135.495,18268.745 3185.074,0 q 1185.81,0 1443.595,847.825 l 22.914,160.4 q 0,532.755 -916.568,2016.45 -1518.066,2743.975 -1833.136,3162.159 -784.811,847.826 -1466.509,1099.882 -641.598,297.885 -1878.965,297.885 l -2887.189,0 q -979.582,0 -1306.109,-618.684 -68.743,-217.685 -68.743,-366.627 0,-567.126 1076.967,-2268.506 1340.481,-2371.62 1718.566,-2864.275 1317.566,-1466.509 2910.103,-1466.509 z m -2784.075,5224.438 0,45.828 q 0,389.542 595.769,389.542 l 1306.109,0 q 1168.625,0 1856.051,-1558.166 893.654,-1437.866 893.654,-1741.479 l 0,-68.743 q 0,-292.156 -504.113,-343.713 l -1397.766,0 q -1128.525,0 -1993.536,1741.479 -756.168,1208.725 -756.168,1535.252 z" />
                <path
                   inkscape:connector-curvature="0"
                   id="path4493"
                   style="font-style:normal;font-variant:normal;font-weight:normal;font-stretch:normal;font-size:11732.07128906px;font-family:'NFS font';-inkscape-font-specification:'NFS font';letter-spacing:-100px;fill:#006e71;fill-opacity:1"
                   d="m 45692.36,18268.745 22.914,22.914 22.914,0 q -2205.492,3992.8 -3299.645,5843.122 -601.498,991.039 -2245.592,1558.165 l -893.653,160.4 -1237.367,-22.914 -2176.85,0 q -1065.51,0 -1237.366,-733.255 l -22.915,-206.228 q 0,-521.298 870.74,-1924.793 2560.662,-4485.455 2703.876,-4674.497 l 2062.278,0 22.914,22.914 22.914,0 -2749.704,4857.811 -45.828,297.885 0,45.828 q 0,412.456 710.34,412.456 l 1122.796,0 q 1254.552,0 2016.45,-1764.394 l 2199.763,-3895.414 2131.021,0 z" />
                <path
                   inkscape:connector-curvature="0"
                   id="path4495"
                   style="font-style:normal;font-variant:normal;font-weight:normal;font-stretch:normal;font-size:11732.07128906px;font-family:'NFS font';-inkscape-font-specification:'NFS font';letter-spacing:-100px;fill:#006e71;fill-opacity:1"
                   d="m 46554.757,18222.917 5086.952,0 q 1432.138,0 1672.737,893.653 l 22.914,160.4 q 0,504.112 -985.31,2131.021 -567.127,1134.253 -1237.367,1443.594 l -595.769,137.485 0,22.915 q 458.284,0 549.94,435.37 l 0,68.742 q 0,223.414 -1099.881,2085.192 l -137.486,229.143 -1260.281,22.914 -870.739,0 -45.829,-45.829 1054.054,-1878.964 -3207.989,0 -1122.796,1901.879 -2131.02,0 q 137.485,-337.985 1993.535,-3551.702 2216.949,-3958.428 2314.335,-4055.813 z m 22.914,3826.671 1810.222,0 q 1552.437,0 1810.222,-710.34 343.713,-595.769 343.713,-779.083 l 0,-160.399 q -137.485,-229.142 -549.941,-229.142 l -2337.249,0 q -1076.967,1793.036 -1076.967,1878.964 z" />
                <path
                   inkscape:connector-curvature="0"
                   id="path4497"
                   style="font-style:normal;font-variant:normal;font-weight:normal;font-stretch:normal;font-size:11732.07128906px;font-family:'NFS font';-inkscape-font-specification:'NFS font';letter-spacing:-100px;fill:#006e71;fill-opacity:1"
                   d="m 57132.775,18268.745 6049.349,0 0,22.914 q -2933.018,1901.879 -3047.589,1901.879 l -1718.565,0 -1466.509,-22.914 q -985.31,0 -1810.222,1168.624 l 3345.474,0 q 1099.882,0 1374.852,572.855 l 45.828,206.228 0,160.399 q 0,418.184 -939.482,1856.051 -853.554,1145.71 -1970.621,1489.423 -698.883,229.142 -1168.624,229.142 l -5384.838,0 0,-45.829 2795.533,-1649.822 q 349.441,-229.142 435.37,-229.142 l 2291.42,-22.914 q 412.455,0 962.396,-320.799 567.127,-475.47 618.684,-733.255 l -2864.276,0 q -1632.636,0 -1787.307,-549.941 l -68.743,-252.056 0,-114.571 q 0,-538.484 1214.453,-2222.677 1082.696,-1443.595 3093.417,-1443.595 z" />
                <path
                   inkscape:connector-curvature="0"
                   id="path4499"
                   style="font-style:normal;font-variant:normal;font-weight:normal;font-stretch:normal;font-size:11732.07128906px;font-family:'NFS font';-inkscape-font-specification:'NFS font';letter-spacing:-100px;fill:#006e71;fill-opacity:1"
                   d="m 65029.832,18314.573 0,45.829 -4239.128,7470.03 -22.914,22.914 -2085.192,0 -22.914,-22.914 -22.914,0 4216.213,-7515.859 2176.849,0 z" />
                <path
                   inkscape:connector-curvature="0"
                   id="path4501"
                   style="font-style:normal;font-variant:normal;font-weight:normal;font-stretch:normal;font-size:11732.07128906px;font-family:'NFS font';-inkscape-font-specification:'NFS font';letter-spacing:-100px;fill:#006e71;fill-opacity:1"
                   d="m 65800.573,18268.745 8615.74,0 0,45.828 -3139.246,1878.965 -4376.612,0 q -217.685,309.342 -664.512,1145.71 l 3024.675,0 0,45.828 -2589.305,1489.423 -1351.938,0 -595.769,1076.968 6530.547,0 22.914,22.914 22.914,0 q -1036.867,1850.322 -1099.881,1878.965 l -8661.568,0 -22.915,-22.914 -22.914,0 q 4216.213,-7470.03 4307.87,-7561.687 z" />
                <path
                   inkscape:connector-curvature="0"
                   id="path4503"
                   style="font-style:normal;font-variant:normal;font-weight:normal;font-stretch:normal;font-size:11732.07128906px;font-family:'NFS font';-inkscape-font-specification:'NFS font';letter-spacing:-100px;fill:#006e71;fill-opacity:1"
                   d="m 74293.397,18222.917 5086.953,0 q 1432.138,0 1672.737,893.653 l 22.914,160.4 q 0,504.112 -985.311,2131.021 -567.126,1134.253 -1237.367,1443.594 l -595.769,137.485 0,22.915 q 458.284,0 549.941,435.37 l 0,68.742 q 0,223.414 -1099.882,2085.192 l -137.485,229.143 -1260.281,22.914 -870.74,0 -45.828,-45.829 1054.053,-1878.964 -3207.988,0 -1122.796,1901.879 -2131.021,0 q 137.486,-337.985 1993.536,-3551.702 2216.949,-3958.428 2314.334,-4055.813 z m 22.914,3826.671 1810.222,0 q 1552.438,0 1810.222,-710.34 343.713,-595.769 343.713,-779.083 l 0,-160.399 q -137.485,-229.142 -549.94,-229.142 l -2337.249,0 q -1076.968,1793.036 -1076.968,1878.964 z" />
              </g>
            </g>
          </g>
        </g>
        <g
           transform="matrix(0.1629381,0,0,0.15968176,-4773.7907,-2172.0898)"
           id="g4505"
           style="fill:#006e71;fill-opacity:1">
          <path
             style="opacity:1;fill:#006e71;fill-opacity:1;stroke:none;stroke-width:444;stroke-linecap:round;stroke-linejoin:miter;stroke-miterlimit:4;stroke-dasharray:none;stroke-dashoffset:0;stroke-opacity:1"
             d="m 50490.568,11263.011 3507.286,0 0,427.389 -3694.579,0 z"
             id="path4507"
             inkscape:connector-curvature="0"
             sodipodi:nodetypes="ccccc" />
          <path
             sodipodi:nodetypes="ccccc"
             inkscape:connector-curvature="0"
             id="path4509"
             d="m 50172.908,11919.011 2240.282,0 0,427.389 -2480.228,0 z"
             style="opacity:1;fill:#006e71;fill-opacity:1;stroke:none;stroke-width:444;stroke-linecap:round;stroke-linejoin:miter;stroke-miterlimit:4;stroke-dasharray:none;stroke-dashoffset:0;stroke-opacity:1" />
          <path
             style="opacity:1;fill:#006e71;fill-opacity:1;stroke:none;stroke-width:444;stroke-linecap:round;stroke-linejoin:miter;stroke-miterlimit:4;stroke-dasharray:none;stroke-dashoffset:0;stroke-opacity:1"
             d="m 49817.911,12530.511 1308.33,0 0,427.389 -1547.555,0 z"
             id="path4511"
             inkscape:connector-curvature="0"
             sodipodi:nodetypes="ccccc" />
        </g>
      </g>
    </g>
  </g>
</svg>
